<svg width="124" height="95" viewBox="0 0 124 95" fill="none" xmlns="http://www.w3.org/2000/svg">
<path d="M34.9242 82.3469C36.0179 75.6549 31.4354 69.3506 24.6891 68.2658C17.9427 67.181 11.5871 71.7265 10.4935 78.4184C9.39987 85.1104 13.9823 91.4147 20.7287 92.4995C27.475 93.5843 33.8306 89.0388 34.9242 82.3469Z" fill="url(#paint0_linear)"/>
<path d="M104.482 92.5252C111.228 91.4404 115.811 85.136 114.717 78.4441C113.623 71.7521 107.268 67.2066 100.521 68.2914C93.7749 69.3763 89.1925 75.6806 90.2861 82.3725C91.3797 89.0645 97.7353 93.61 104.482 92.5252Z" fill="url(#paint1_linear)"/>
<path d="M97.209 55.3853H28.0403V15.5716C28.0403 7.98454 34.2407 1.83411 41.8894 1.83411H83.3594C91.0081 1.83411 97.2087 7.98454 97.2087 15.5716V55.3853H97.209Z" fill="url(#paint2_linear)"/>
<path d="M69.821 90.9369C68.0901 92.3303 65.8855 93.166 63.4881 93.166C59.3777 93.166 55.8348 90.7097 54.2729 87.1989C51.1557 88.9082 47.5745 89.8813 43.7679 89.8813C33.1124 89.8813 24.2189 82.2544 22.3456 72.2146C21.5875 72.3112 20.8215 72.3602 20.053 72.3602C14.1164 72.3602 8.27435 69.8457 4.42626 65.6342C2.62053 63.6578 1.69901 61.1027 1.83076 58.4387C1.96081 55.8132 3.09909 53.3919 5.03924 51.608C3.45292 48.8652 2.80289 45.6271 3.28169 42.3189C4.40495 34.5575 11.2225 29.1378 19.6762 29.1378C26.7718 29.1378 31.8606 33.081 32.8085 33.8716C36.9922 37.3607 37.5904 43.5335 34.1979 47.7453C34.404 48.0196 34.6006 48.2992 34.7866 48.5837C42.1975 45.2437 51.1727 46.2299 57.763 51.7218C59.3847 50.6057 61.3517 49.9494 63.4699 49.9458H69.7246C71.3518 49.9458 72.9243 50.1757 74.4104 50.6038C75.475 46.2311 79.4495 42.9714 84.1782 42.963H87.1653C86.7391 37.1042 91.4268 32.2438 97.2071 32.2438C100.097 32.2438 102.799 33.4565 104.692 35.5484C108.014 31.9346 113.492 31.2603 117.611 33.9184C122.265 36.9238 123.586 43.1213 120.558 47.7352L114.755 56.5777L114.733 65.5037C114.721 70.2392 111.363 74.2131 106.889 75.2187C107.749 84.0675 97.4338 89.5063 90.5293 83.9546C89.1934 85.0298 87.5758 85.7731 85.8045 86.0561C83.7704 92.8172 75.3925 95.4173 69.821 90.9369V90.9369Z" fill="url(#paint3_linear)"/>
<path d="M43.7679 54.8971C36.3333 54.8971 30.2849 60.8967 30.2849 68.2711C30.2849 75.6458 36.3333 81.6453 43.7679 81.6453C51.2022 81.6453 57.2506 75.6458 57.2506 68.2711C57.2506 60.8967 51.2022 54.8971 43.7679 54.8971ZM43.7679 78.1473C38.2778 78.1473 33.8114 73.7169 33.8114 68.2711C33.8114 62.8255 38.2778 58.3949 43.7679 58.3949C49.2577 58.3949 53.7244 62.8253 53.7244 68.2711C53.7244 73.7169 49.258 78.1473 43.7679 78.1473ZM116.57 57.1142L122.08 48.7179C125.654 43.2713 124.094 35.955 118.602 32.408C114.226 29.5838 108.645 29.9257 104.699 33.0756C103.067 31.7627 101.106 30.9027 99.0252 30.5832V17.4197C99.0252 16.4246 98.2119 15.6179 97.2088 15.6179C96.2057 15.6179 95.3924 16.4246 95.3924 17.4197V30.582C90.0571 31.4074 85.8493 35.7326 85.3676 41.1609H84.1746C79.2905 41.1695 75.0038 44.097 73.2024 48.4663C70.4911 47.9573 68.9758 48.2131 63.4663 48.1437C61.5063 48.1473 59.6061 48.6232 57.8987 49.5301C52.0317 45.178 44.4036 43.7991 37.4226 45.7219C39.1559 41.1618 37.9092 35.7717 33.977 32.4923C33.4978 32.0928 32.0458 30.9534 29.8562 29.8471V15.5715C29.8562 8.99013 35.2543 3.63559 41.8892 3.63559H83.3594C87.8021 3.63559 91.8681 6.05065 93.9708 9.93809C94.4452 10.8149 95.5467 11.1445 96.4299 10.6739C97.3139 10.2036 97.6462 9.11145 97.1717 8.2346C94.4355 3.17507 89.1428 0.0321045 83.3592 0.0321045H41.8895C33.2514 0.0321045 26.2237 7.00317 26.2237 15.5715V28.3637C24.3032 27.7581 22.0969 27.3362 19.676 27.3362C10.3572 27.3362 2.73921 33.3874 1.48372 42.0629C1.0192 45.2741 1.4842 48.4382 2.82978 51.2939C-0.962116 55.7034 -1.00595 62.3717 3.08045 66.8441C5.25673 69.226 8.01716 71.1075 11.0701 72.3666C9.42014 74.7043 8.52865 77.4749 8.52865 80.3978C8.52865 81.322 8.61972 82.2466 8.79942 83.1463C8.97088 84.0042 9.72989 84.5983 10.5792 84.5983C10.6962 84.5983 10.8149 84.587 10.934 84.5634C11.918 84.3701 12.5579 83.4221 12.3627 82.446C12.229 81.7765 12.1612 81.0875 12.1612 80.3978C12.1612 77.8456 13.0716 75.4473 14.7407 73.5445C16.8572 74.0386 18.9918 74.2267 20.9162 74.1431C22.372 79.7381 25.8214 84.4445 30.4109 87.5704C26.5659 91.6352 20.2601 91.9508 16.0209 88.4949C15.2459 87.863 14.1011 87.9743 13.4644 88.7428C12.8274 89.5115 12.9393 90.6469 13.7143 91.2787C19.7077 96.1648 28.6131 95.3806 33.622 89.4084C40.0883 92.4647 47.3774 92.3571 53.5175 89.5903C57.045 94.9823 64.2943 96.6039 69.8203 93.1501C76.0936 97.0784 84.4287 94.3678 87.1787 87.6084C88.0835 87.3751 88.9575 87.0347 89.7822 86.5977C92.1348 91.3824 97.0245 94.4762 102.527 94.4762C110.353 94.4762 116.72 88.1609 116.72 80.398C116.72 77.5453 115.84 74.7706 114.224 72.4365C115.684 70.4678 116.542 68.0563 116.549 65.508L116.57 57.1142ZM102.528 90.8727C99.6791 90.8727 97.0514 89.7578 95.1262 87.8815C101.742 88.855 108.566 83.948 108.751 76.5459C109.775 76.1709 110.729 75.6585 111.594 75.0349C115.758 81.9538 110.746 90.8727 102.528 90.8727ZM113.232 55.5945C113.041 55.8857 112.939 56.2256 112.938 56.5732L112.916 65.4991C112.907 69.2774 110.203 72.6263 106.487 73.4613C105.595 73.6617 104.993 74.4886 105.081 75.3914C105.785 82.6375 97.3289 87.1022 91.6732 82.5544C91.0062 82.0179 90.0515 82.0182 89.385 82.5549C88.2658 83.4557 86.9278 84.051 85.5156 84.2768C84.8273 84.3869 84.2635 84.8777 84.0639 85.5405C82.4294 90.9736 75.6146 93.2767 70.9648 89.5372C70.2979 89.001 69.3434 89.001 68.6764 89.5377C64.4384 92.9495 58.1212 91.3868 55.9348 86.4714C55.5049 85.5049 54.3296 85.1093 53.394 85.6219C41.6015 92.0885 26.624 85.2428 24.1315 71.8864C23.9561 70.9461 23.0712 70.3049 22.1141 70.4272C16.5312 71.138 9.96433 69.0122 5.77185 64.424C2.72346 61.0877 2.97195 55.9657 6.27391 52.9291C6.89439 52.3586 7.03558 51.439 6.61466 50.7113C5.19521 48.2569 4.66434 45.4433 5.07945 42.5746C6.07095 35.7239 12.073 30.9395 19.6757 30.9395C26.1416 30.9395 30.7761 34.5307 31.6392 35.2504C35.0356 38.0828 35.5466 43.1834 32.7785 46.6204C32.2628 47.2606 32.2476 48.1656 32.7416 48.8224C32.9245 49.0655 33.0998 49.3148 33.2626 49.564C33.7518 50.3123 34.7193 50.5931 35.5379 50.2239C42.4787 47.0963 50.7438 48.2256 56.5945 53.1011C57.222 53.6239 58.1246 53.6657 58.7984 53.2018C60.1767 52.2531 61.793 51.7501 63.4697 51.7472C68.7108 51.8611 70.7316 51.42 73.9035 52.3336C74.9004 52.6204 75.933 52.0225 76.1757 51.0263C77.0718 47.3461 80.3636 44.7711 84.178 44.7644H87.1651C88.2184 44.7644 89.0527 43.8767 88.9767 42.8329C88.6233 37.974 92.5256 34.0452 97.2069 34.0452C99.5483 34.0452 101.783 35.0316 103.34 36.7516C104.04 37.5254 105.29 37.5713 106.034 36.7622C108.764 33.7927 113.216 33.2315 116.62 35.428C120.433 37.8906 121.517 42.9703 119.036 46.7518L113.232 55.5945ZM22.6985 49.2925C19.6263 48.1685 16.7814 46.9401 16.1277 46.6548C14.2205 45.3054 14.5949 42.085 17.6741 41.1647C21.6183 39.9864 25.1491 42.8154 25.2024 42.8584C25.9476 43.475 27.0561 43.3782 27.6809 42.6402C28.3075 41.9008 28.2111 40.7976 27.4656 40.1762C27.2641 40.0082 22.4635 36.0807 16.6566 37.8154C10.7156 39.591 9.71609 46.6872 14.306 49.6555C14.8001 49.9745 19.6171 51.8933 21.4778 52.5741C24.2325 53.5819 25.6241 55.2056 25.2959 57.0285C24.982 58.7726 23.0375 60.626 20.0528 60.626C17.3992 60.626 14.8342 59.5524 13.1912 57.754C12.5373 57.0386 11.4223 56.984 10.7006 57.6324C9.9791 58.281 9.92437 59.3873 10.578 60.103C12.8785 62.6208 16.4203 64.124 20.0528 64.124C24.356 64.124 28.1023 61.338 28.7674 57.6432C29.5307 53.4029 26.1329 50.5492 22.6985 49.2925ZM62.6085 23.2811C59.5468 23.2811 56.665 24.8866 54.7016 27.6858C54.1288 28.5025 54.3318 29.6254 55.1552 30.1938C55.9786 30.7622 57.1109 30.5604 57.6836 29.7436C58.958 27.9265 60.7528 26.8846 62.6082 26.8846C64.4636 26.8846 66.2587 27.9267 67.5331 29.7436C68.1041 30.5577 69.2354 30.7636 70.0615 30.1938C70.8849 29.6254 71.0881 28.5025 70.5153 27.6858C68.5522 24.8866 65.6702 23.2811 62.6085 23.2811ZM49.7138 19.1673C49.0177 19.9596 48.0127 20.4142 46.9567 20.4142C45.9006 20.4142 44.8955 19.9596 44.1994 19.1673C43.5402 18.4171 42.393 18.3393 41.6366 18.9927C40.8805 19.6466 40.8016 20.7846 41.4606 21.5348C42.8468 23.1127 44.8502 24.0176 46.9565 24.0176C49.063 24.0176 51.0661 23.1127 52.4524 21.5348C53.1114 20.7846 53.0327 19.6466 52.2763 18.9927C51.5202 18.339 50.3728 18.4171 49.7138 19.1673ZM98.6319 58.9905C98.6319 54.6941 94.9536 51.199 90.4324 51.199H84.2037L84.1998 51.1992L84.1959 51.199C83.2221 51.199 82.4328 51.9821 82.4328 52.9479V76.1983C82.4328 77.1643 83.2223 77.9472 84.1959 77.9472C85.1698 77.9472 85.959 77.164 85.959 76.1983V66.799C86.031 66.7985 86.1043 66.7982 86.1789 66.7978L95.545 77.3536C96.1892 78.0796 97.3035 78.1483 98.0334 77.5109C98.7644 76.8729 98.8356 75.7676 98.1921 75.0425L90.8534 66.7716C95.18 66.5626 98.6319 63.1525 98.6319 58.9905ZM90.4324 63.2839C89.4075 63.2839 87.4102 63.2933 85.9593 63.3009V54.6968H90.4324C92.9655 54.6968 95.1057 56.6631 95.1057 58.9905C95.1057 61.3176 92.9657 63.2839 90.4324 63.2839ZM113.083 40.8221C112.267 40.2953 111.175 40.5243 110.644 41.3338L104.693 50.4005L98.6849 41.2728C98.1526 40.464 97.0596 40.2367 96.2447 40.7647C95.4292 41.2928 95.1999 42.3765 95.7324 43.1853L102.931 54.1214L102.903 65.4751C102.901 66.441 103.688 67.2259 104.662 67.2283H104.666C105.638 67.2283 106.427 66.448 106.43 65.4837L106.458 54.1241L113.599 43.2422C114.13 42.4324 113.899 41.349 113.083 40.8221ZM77.9238 65.9733C77.9238 61.677 74.2455 58.1818 69.7241 58.1818H63.4956L63.4917 58.1821L63.4878 58.1818C62.514 58.1818 61.7247 58.965 61.7247 59.9307V83.1811C61.7247 84.1471 62.5142 84.93 63.4878 84.93C64.4614 84.93 65.2509 84.1471 65.2509 83.1811V73.7818C65.3229 73.7813 65.3963 73.7811 65.4709 73.7806L74.8369 84.3364C75.4809 85.0624 76.5954 85.1311 77.3254 84.4938C78.0563 83.8557 78.1275 82.7504 77.484 82.0254L70.1453 73.7544C74.4717 73.5457 77.9238 70.1353 77.9238 65.9733ZM69.7244 70.267C68.6989 70.267 66.7019 70.2763 65.2514 70.284V61.6799H69.7244C72.2576 61.6799 74.3976 63.6462 74.3976 65.9733C74.3976 68.3007 72.2574 70.267 69.7244 70.267ZM81.0175 19.1673C80.3214 19.9596 79.3164 20.4142 78.2604 20.4142C77.2043 20.4142 76.1994 19.9596 75.5034 19.1673C74.8442 18.4173 73.6969 18.339 72.9406 18.9927C72.1842 19.6464 72.1055 20.7846 72.7645 21.5348C74.1505 23.1127 76.1539 24.0176 78.2604 24.0176C80.367 24.0176 82.3701 23.1127 83.7564 21.5348C84.4153 20.7846 84.3366 19.6466 83.5803 18.9927C82.8239 18.339 81.6765 18.4171 81.0175 19.1673Z" fill="white"/>
<defs>
<linearGradient id="paint0_linear" x1="10.4935" y1="78.4184" x2="34.914" y2="82.4094" gradientUnits="userSpaceOnUse">
<stop stop-color="#F89C3B"/>
<stop offset="1" stop-color="#F85690"/>
</linearGradient>
<linearGradient id="paint1_linear" x1="100.521" y1="68.2914" x2="104.42" y2="92.5351" gradientUnits="userSpaceOnUse">
<stop stop-color="#F89C3B"/>
<stop offset="1" stop-color="#F85690"/>
</linearGradient>
<linearGradient id="paint2_linear" x1="62.6246" y1="1.83411" x2="62.6246" y2="55.3853" gradientUnits="userSpaceOnUse">
<stop stop-color="#F89C3B"/>
<stop offset="1" stop-color="#F85690"/>
</linearGradient>
<linearGradient id="paint3_linear" x1="62.0016" y1="29.1378" x2="62.0016" y2="93.1661" gradientUnits="userSpaceOnUse">
<stop stop-color="#2CD57C"/>
<stop offset="1" stop-color="#249FEC"/>
</linearGradient>
</defs>
</svg>
