<svg width="82" height="100" viewBox="0 0 82 100" fill="none" xmlns="http://www.w3.org/2000/svg">
<path fill-rule="evenodd" clip-rule="evenodd" d="M59.7321 82.3903H22.2687H17.5857L15.6345 98H66.3662L64.415 82.3903H59.7321Z" fill="url(#paint0_linear)"/>
<path fill-rule="evenodd" clip-rule="evenodd" d="M36.2363 62.6344C34.0999 70.8907 29.2888 82.3903 22.2683 82.3903H59.7317C52.7114 82.3903 47.9001 70.8907 45.7639 62.6342H36.2363V62.6344Z" fill="url(#paint1_linear)"/>
<path fill-rule="evenodd" clip-rule="evenodd" d="M36.2365 62.6344H45.7641H46.8539C49.0002 62.6344 50.7563 60.8785 50.7563 58.732C50.7563 58.09 50.5993 57.4828 50.3214 56.9472C49.6707 55.6921 48.3581 54.8297 46.8539 54.8297H35.1466C33.6422 54.8297 32.3296 55.6923 31.6791 56.9472C31.4014 57.4828 31.2441 58.09 31.2441 58.7322C31.2441 60.8785 33.0002 62.6344 35.1466 62.6344H36.2365Z" fill="url(#paint2_linear)"/>
<path fill-rule="evenodd" clip-rule="evenodd" d="M35.1467 54.8295H46.854C48.3584 54.8295 49.6708 55.6922 50.3213 56.9472C59.696 53.2127 66.3662 44.0307 66.3662 33.3661V9.80493H15.6345V33.3661C15.6345 44.0307 22.3048 53.2127 31.6792 56.9472C32.3297 55.6922 33.6423 54.8295 35.1467 54.8295ZM47.0097 42.1903C46.6181 42.2443 46.2365 42.1809 45.9046 42.0227L40.9453 39.6601L36.1073 42.0151C35.1391 42.4865 33.9721 42.0838 33.5007 41.1158C33.3048 40.7134 33.2599 40.2769 33.3438 39.8699L34.04 34.562L30.3009 30.684C29.5559 29.9095 29.5797 28.6775 30.3541 27.9323C30.656 27.642 31.0273 27.4685 31.4121 27.4106L36.7522 26.4182L39.2833 21.6668C39.7885 20.7197 40.9658 20.3614 41.913 20.8664C42.2612 21.0522 42.5297 21.329 42.7053 21.6516L45.3274 26.4748L50.6287 27.4139C51.6895 27.5991 52.3992 28.6092 52.214 29.6701C52.1381 30.1046 51.9239 30.4801 51.6246 30.7593L47.9258 34.6607L48.6712 39.9952C48.8187 41.0602 48.0747 42.043 47.0097 42.1903Z" fill="url(#paint3_linear)"/>
<path fill-rule="evenodd" clip-rule="evenodd" d="M40.9452 39.6599L45.9044 42.0225C46.2363 42.1809 46.6181 42.2443 47.0096 42.1901C48.0745 42.0427 48.8185 41.0599 48.6712 39.9949L47.9259 34.6605L51.6246 30.759C51.9239 30.4796 52.1383 30.1042 52.214 29.6699C52.3992 28.609 51.6894 27.5988 50.6287 27.4137L45.3274 26.4745L42.7054 21.6513C42.5298 21.3286 42.2613 21.0519 41.913 20.8662C40.9658 20.361 39.7885 20.7192 39.2833 21.6665L36.7522 26.418L31.4121 27.4104C31.0273 27.4683 30.656 27.6418 30.3541 27.9321C29.5797 28.6771 29.5557 29.9091 30.3009 30.6837L34.04 34.5618L33.3438 39.8697C33.2599 40.2765 33.3048 40.7132 33.5007 41.1155C33.9721 42.0837 35.1393 42.4863 36.1073 42.0148L40.9452 39.6599Z" fill="url(#paint4_linear)"/>
<path fill-rule="evenodd" clip-rule="evenodd" d="M15.6344 9.80488H66.3661C68.5124 9.80488 70.2685 8.04897 70.2685 5.90244C70.2685 3.7561 68.5124 2 66.3661 2H15.6344C13.488 2 11.7319 3.7561 11.7319 5.90244C11.7319 8.04897 13.488 9.80488 15.6344 9.80488Z" fill="url(#paint5_linear)"/>
<path d="M45.0623 88.2476H36.9379C35.8596 88.2476 34.9855 89.1219 34.9855 90.2C34.9855 91.2781 35.8596 92.1524 36.9379 92.1524H45.0623C46.1406 92.1524 47.0147 91.2781 47.0147 90.2C47.0147 89.1219 46.1406 88.2476 45.0623 88.2476Z" fill="white"/>
<path d="M80.0476 15.6192H68.3333V11.3785C70.6057 10.5725 72.2381 8.40246 72.2381 5.85714C72.2381 2.62751 69.6106 0 66.381 0H15.619C12.3894 0 9.7619 2.62751 9.7619 5.85734C9.7619 8.40246 11.3943 10.5725 13.6667 11.3785V15.6192H1.95238C0.874081 15.6192 0 16.4935 0 17.5716V31.2383C0 39.8506 7.00671 46.8573 15.619 46.8573H17.2698C17.645 47.5114 18.0461 48.1537 18.4777 48.7802C21.2413 52.7916 24.9711 55.9632 29.3271 58.033C29.3007 58.2579 29.2857 58.4863 29.2857 58.7183C29.2857 61.4537 31.1711 63.7568 33.7104 64.3975C31.3644 72.2139 27.1955 80.4381 22.2571 80.4381H17.5714C16.5868 80.4381 15.7563 81.1712 15.6341 82.1484L13.6817 97.7674C13.6122 98.3231 13.7848 98.8819 14.1553 99.3016C14.5259 99.7214 15.0591 99.9619 15.619 99.9619H66.381C66.9409 99.9619 67.4741 99.7216 67.8447 99.3016C68.2152 98.8819 68.3878 98.3229 68.3183 97.7674L66.3659 82.1484C66.2439 81.1712 65.4134 80.4381 64.4286 80.4381H59.7429C56.754 80.4381 54.2286 77.2996 52.6364 74.6665C50.5903 71.283 49.1613 67.2974 48.29 64.3971C50.8293 63.7564 52.7143 61.4533 52.7143 58.7181C52.7143 58.4861 52.6992 58.2579 52.6729 58.0328C57.0296 55.9629 60.7599 52.7904 63.5236 48.7783C63.9547 48.1524 64.3554 47.5108 64.7302 46.8573H66.381C74.9933 46.8573 82 39.8506 82 31.2383V17.5716C82 16.4935 81.1259 15.6192 80.0476 15.6192ZM3.90476 31.2383V19.524H13.6667V33.3371C13.6667 36.6522 14.268 39.8959 15.4232 42.9477C9.05417 42.8423 3.90476 37.632 3.90476 31.2383ZM64.1693 96.0571H17.8307L19.295 84.3429H62.705L64.1693 96.0571ZM52.0462 80.4381H29.954C30.9027 79.3983 31.8176 78.1528 32.6961 76.7018C35.1917 72.5804 36.8299 67.7246 37.7259 64.5752H44.2743C45.1711 67.7279 46.806 72.5714 49.2951 76.6872C50.1764 78.1444 51.0942 79.3947 52.0462 80.4381ZM46.8571 60.6704H35.1429C34.0663 60.6704 33.1905 59.7946 33.1905 58.7181C33.1905 57.6415 34.0663 56.7657 35.1429 56.7657H46.8571C47.9337 56.7657 48.8095 57.6415 48.8095 58.7181C48.8095 59.7946 47.9337 60.6704 46.8571 60.6704ZM50.947 54.5308C49.8906 53.4988 48.4472 52.8609 46.8571 52.8609H35.1429C33.5528 52.8609 32.1096 53.4988 31.053 54.5308C22.8218 50.6549 17.5714 42.4762 17.5714 33.3371V11.7143H32.2137C33.292 11.7143 34.1661 10.84 34.1661 9.7619C34.1661 8.6838 33.292 7.80952 32.2137 7.80952H15.619C14.5425 7.80952 13.6667 6.93369 13.6667 5.85714C13.6667 4.7806 14.5425 3.90476 15.619 3.90476H66.381C67.4575 3.90476 68.3333 4.7806 68.3333 5.85734C68.3333 6.93388 67.4575 7.80952 66.381 7.80952H49.7851C48.7068 7.80952 47.8327 8.6838 47.8327 9.7619C47.8327 10.84 48.7068 11.7143 49.7851 11.7143H64.4286V33.3371C64.4286 42.4758 59.178 50.6549 50.947 54.5308ZM78.0952 31.2383C78.0952 37.632 72.9458 42.8423 66.5768 42.9477C67.732 39.8961 68.3333 36.6522 68.3333 33.3371V19.524H78.0952V31.2383Z" fill="white"/>
<path d="M50.9747 25.4589L46.5959 24.6832L44.4214 20.683C44.4214 20.6828 44.4212 20.6824 44.421 20.6822C44.0561 20.0115 43.5065 19.467 42.8319 19.1074C41.9133 18.6175 40.859 18.5148 39.8633 18.8177C38.8674 19.1209 38.0492 19.7937 37.5589 20.7128L35.4683 24.6373L31.0768 25.4536C30.29 25.5799 29.5706 25.9388 28.994 26.4931C28.2433 27.2152 27.8189 28.1864 27.7986 29.2279C27.7783 30.2693 28.1649 31.2565 28.8886 32.0083L31.9773 35.212L31.4107 39.5322C31.2586 40.3567 31.372 41.1894 31.7405 41.946C32.1969 42.8835 32.9911 43.5869 33.9769 43.9268C34.3941 44.0707 34.8246 44.1424 35.2534 44.1424C35.8373 44.1424 36.4184 44.0096 36.9588 43.7466L40.9543 41.8017L45.0666 43.7609C45.7531 44.0885 46.5188 44.206 47.2808 44.1004C48.3129 43.9579 49.2273 43.4216 49.8562 42.591C50.4849 41.7605 50.7525 40.7345 50.6094 39.6999L49.9937 35.2936L53.0132 32.1087C53.6102 31.532 54.0007 30.7955 54.144 29.9745C54.5138 27.8543 53.0901 25.8283 50.9747 25.4589ZM50.2139 29.3857L46.5129 33.2893C46.1041 33.7204 45.914 34.3143 45.9962 34.9027L46.7468 40.2361L41.7845 37.8721C41.248 37.6167 40.6246 37.6191 40.0902 37.8793L35.2508 40.2382C35.2604 40.1919 35.2682 40.1453 35.2743 40.0986L35.9709 34.7877C36.0482 34.1985 35.8529 33.6064 35.4406 33.1788L31.6963 29.3088C31.7184 29.3055 31.7405 29.3017 31.7623 29.2976L37.1056 28.3047C37.6897 28.1959 38.1927 27.8275 38.4721 27.3031L40.9943 22.5555L43.6141 27.3746C43.8977 27.8964 44.4038 28.2609 44.9889 28.3644L50.2986 29.3014C50.2697 29.3285 50.2412 29.3566 50.2139 29.3857Z" fill="white"/>
<path d="M41.0005 12C42.6571 12 44 10.6566 44 9C44 7.3434 42.6571 6 41.0005 6H40.9984C39.3417 6 38 7.3434 38 9C38 10.6566 39.3438 12 41.0005 12Z" fill="url(#paint6_linear)"/>
<defs>
<linearGradient id="paint0_linear" x1="41.0004" y1="82.3903" x2="41.0004" y2="98" gradientUnits="userSpaceOnUse">
<stop stop-color="#2CD57C"/>
<stop offset="1" stop-color="#249FEC"/>
</linearGradient>
<linearGradient id="paint1_linear" x1="41" y1="62.6342" x2="41" y2="82.3903" gradientUnits="userSpaceOnUse">
<stop stop-color="#F89C3B"/>
<stop offset="1" stop-color="#F85690"/>
</linearGradient>
<linearGradient id="paint2_linear" x1="41.0002" y1="54.8297" x2="41.0002" y2="62.6344" gradientUnits="userSpaceOnUse">
<stop stop-color="#2CD57C"/>
<stop offset="1" stop-color="#249FEC"/>
</linearGradient>
<linearGradient id="paint3_linear" x1="41.0004" y1="9.80493" x2="41.0004" y2="56.9472" gradientUnits="userSpaceOnUse">
<stop stop-color="#F89C3B"/>
<stop offset="1" stop-color="#F85690"/>
</linearGradient>
<linearGradient id="paint4_linear" x1="41.0003" y1="20.6371" x2="41.0003" y2="42.2121" gradientUnits="userSpaceOnUse">
<stop stop-color="#F89C3B"/>
<stop offset="1" stop-color="#F85690"/>
</linearGradient>
<linearGradient id="paint5_linear" x1="41.0002" y1="2" x2="41.0002" y2="9.80488" gradientUnits="userSpaceOnUse">
<stop stop-color="#2CD57C"/>
<stop offset="1" stop-color="#249FEC"/>
</linearGradient>
<linearGradient id="paint6_linear" x1="41" y1="6" x2="41" y2="12" gradientUnits="userSpaceOnUse">
<stop stop-color="#2CD57C"/>
<stop offset="1" stop-color="#249FEC"/>
</linearGradient>
</defs>
</svg>
